<svg
  width="200"
  height="200"
  viewBox="0 0 200 200"
  fill="none"
  xmlns="http://www.w3.org/2000/svg"
>
  <path
    fill-rule="evenodd"
    clip-rule="evenodd"
    d="M136.301 75.5664C134.883 75.5648 133.463 75.5634 132.042 75.5634L132.066 75.6573C130.574 75.6573 129.084 75.6559 127.595 75.6542C123.132 75.65 118.678 75.6455 114.225 75.6807C113.286 75.6807 113.099 75.446 113.38 74.554C113.742 73.3714 114.046 72.177 114.348 70.9876C114.478 70.477 114.608 69.9676 114.742 69.4601C115.238 67.5638 115.734 65.6685 116.23 63.7735C118.621 54.6422 121.009 45.5216 123.38 36.385C123.991 34.061 123.263 31.8075 121.385 30.7042C120.673 30.2883 119.966 29.8638 119.259 29.4397C117.055 28.1164 114.852 26.7941 112.488 25.7277C112.298 25.6429 112.101 25.569 111.903 25.4946C111.444 25.3218 110.981 25.1476 110.587 24.8357C107.934 22.7934 105.962 23.0516 103.873 25.7042C103.322 26.3967 102.776 27.0833 102.23 27.7699C101.684 28.4566 101.139 29.1432 100.587 29.8357C91.5493 41.1033 82.5118 52.3944 73.4742 63.6854L45.7747 98.2864C44.4101 99.9998 43.0369 101.709 41.6644 103.417C39.8021 105.735 37.9411 108.051 36.1033 110.376C34.0376 112.981 34.8827 115.986 37.9813 117.113C38.3334 117.277 38.6385 117.512 38.8733 117.817L39.1092 118.063C42.8796 121.995 46.639 125.915 50.939 129.272C51.9719 130.117 53.2629 130.54 54.601 130.516C62.0651 130.481 69.5423 130.486 77.0228 130.49C79.5174 130.492 82.0122 130.493 84.5071 130.493C85.3435 130.493 85.766 130.493 85.9254 130.698C86.0881 130.907 85.9766 131.329 85.7512 132.183C84.378 137.453 82.9989 142.717 81.6198 147.981C80.2406 153.245 78.8615 158.509 77.4883 163.779C76.831 166.385 77.6526 168.075 80.1174 169.131C80.6104 169.366 81.0329 169.695 81.4085 170.094C81.52 170.198 81.6315 170.303 81.7428 170.408C84.2594 172.769 86.7737 175.127 89.7183 176.948C91.385 177.958 93.0517 177.911 94.7183 176.972C95.5869 176.432 96.3615 175.751 96.9719 174.93C101.702 169.002 106.432 163.081 111.162 157.16C115.892 151.238 120.622 145.317 125.352 139.39L153.779 103.873C154.751 102.654 155.719 101.436 156.686 100.218C159.389 96.8146 162.087 93.4181 164.836 90.0469C166.268 88.2629 166.385 84.6479 163.873 83.1455C163.365 82.8345 162.864 82.5188 162.364 82.2035C161.317 81.543 160.275 80.8854 159.178 80.2817C158.528 79.9268 157.865 79.5927 157.204 79.2592C155.765 78.5338 154.331 77.8106 153.028 76.8779C151.761 75.9624 150.563 75.5399 149.061 75.5399C144.801 75.5751 140.555 75.5706 136.301 75.5664ZM103.895 75.6545H103.897C104.297 75.6559 104.696 75.6573 105.094 75.6573V75.6807C105.505 75.6807 105.916 75.6793 106.326 75.6777H106.327C107.559 75.6735 108.791 75.669 110.024 75.7042C110.681 75.7042 110.962 75.4929 111.127 74.8357C111.431 73.5411 111.778 72.2573 112.124 70.9768L112.124 70.976C112.286 70.3763 112.448 69.7775 112.606 69.1784C114.038 63.6845 115.476 58.1908 116.914 52.6969C118.351 47.2049 119.789 41.7127 121.221 36.2206C121.596 34.7887 121.526 33.4037 120.188 32.5352C117.653 30.8685 115 29.3427 112.277 27.9812C111.854 27.7699 111.643 27.676 111.502 28.3098C110.751 31.385 109.953 34.4366 109.155 37.4883C105.939 49.8826 102.7 62.2535 99.4367 74.6244C99.2019 75.5164 99.4367 75.7042 100.282 75.6807C101.48 75.6455 102.691 75.65 103.895 75.6545ZM90.2817 174.836C90.8686 175.235 91.5493 175.493 92.2536 175.563C93.3568 175.469 94.3662 174.906 95 174.014C95.7148 173.112 96.4357 172.215 97.1564 171.319L97.1573 171.317L97.1597 171.315L97.162 171.312L97.1629 171.311C97.8836 170.414 98.6045 169.517 99.3193 168.615L127.653 133.169C137.183 121.244 146.737 109.296 156.291 97.3474C157.068 96.3699 157.851 95.3953 158.634 94.4195C160.146 92.5366 161.661 90.6498 163.146 88.7324C164.319 87.2066 164.014 85.6573 162.441 84.6244C160.573 83.4021 158.601 82.3357 156.631 81.2707C155.953 80.9038 155.274 80.5371 154.601 80.1643C154.108 79.8826 153.897 80 153.803 80.5164C153.644 81.3798 153.133 82.0232 152.611 82.681L152.559 82.7465C151.866 83.615 151.168 84.4838 150.469 85.3523C149.771 86.2209 149.073 87.0892 148.38 87.9577C138.545 100.282 128.685 112.629 118.826 124.953C109.061 137.207 99.2723 149.437 89.4601 161.667C88.9446 162.309 88.4465 162.968 87.9484 163.626L87.9477 163.627L87.9472 163.627C86.6078 165.397 85.2679 167.167 83.5916 168.638C83.216 168.991 83.4742 169.202 83.709 169.39C84.1465 169.774 84.5801 170.163 85.0136 170.551C86.6965 172.06 88.3777 173.566 90.2817 174.836ZM41.3146 117.113H79.5775C82.6291 117.113 85.6808 117.113 88.7324 117.089C89.5071 117.089 89.7418 117.207 89.5071 118.075C88.6385 121.197 87.8404 124.343 87.0658 127.465C86.9014 128.146 86.5963 128.38 85.8686 128.38C75.2348 128.357 64.601 128.357 53.9906 128.38C53.4742 128.404 52.9813 128.239 52.6057 127.911C48.8733 124.812 45.3287 121.502 41.9719 118.005C41.7136 117.723 41.5024 117.441 41.3146 117.113Z"
    fill="#75FBCB"
  />
</svg>
